<?xml version="1.0" encoding="UTF-8"?>
<svg id="Camada_1" data-name="Camada 1" xmlns="http://www.w3.org/2000/svg" viewBox="0 0 151.16 125.51">
  <defs>
    <style>
      .cls-1 {
        fill:rgb(0, 0, 0);
      }

      .cls-1, .cls-2, .cls-3, .cls-4, .cls-5, .cls-6 {
        fill-rule: evenodd;
      }

      .cls-2 {
        fill:rgb(0, 0, 0);
      }

      .cls-3 {
        fill:rgb(255, 255, 255);
      }

      .cls-4 {
        fill:rgb(255, 255, 255);
      }

      .cls-5 {
        fill: #fdfdfd;
      }

      .cls-6 {
        fill:rgb(0, 0, 0);
      }
    </style>
  </defs>
  <g id="flags">
    <g>
      <g>
        <path class="cls-1" d="M102.67,32.1c-.35.01-.56.19-.73.44-.56.85-1.06,1.74-1.57,2.62-1.29,2.27-2.76,4.43-4.05,6.69-1.66,2.9-3.51,5.68-5.09,8.63-2.14,4-4.42,7.93-6.66,11.88-1.75,3.08-3.59,6.11-5.34,9.18-1.29,2.27-2.51,4.59-3.82,6.86-2.92,5.05-5.68,10.19-8.51,15.29-.55.99-1.15,1.94-1.74,2.9-.08.13-.2.25-.29.37-.22.31-.18.57.13.79.28.19.56.39.87.54.47.22.7.16.97-.29.84-1.41,1.62-2.86,2.37-4.33.97-1.9,2.11-3.72,3.2-5.55,1.04-1.75,1.93-3.57,2.85-5.39,1.11-2.21,2.34-4.37,3.59-6.5,2.23-3.8,4.39-7.63,6.54-11.47.53-.94,1.1-1.86,1.64-2.8.11-.2.27-.15.43-.1.61.18,1.2.38,1.81.53,3.34.84,6.54,2.1,9.72,3.39.94.38,1.85.85,2.75,1.31.88.45,1.62,1.11,2.4,1.7.99.76,2.02,1.48,2.84,2.44,1.39,1.63,2.77,3.26,3.99,5.04,1.03,1.5,2.09,2.99,3.23,4.4,1.37,1.69,2.8,3.33,4.44,4.77,2.02,1.78,4.33,3.07,6.83,4.06,2.27.9,4.61,1.52,6.99,2.04.61.14,1.22.29,1.84.42.46.1.49.08.72-.33,1.48-2.72,2.94-5.45,4.46-8.15.85-1.5,1.82-2.92,2.71-4.39.76-1.26,1.61-2.46,2.36-3.73.94-1.62,1.96-3.19,2.83-4.87.96-1.87,2.06-3.66,3.27-5.38.21-.29.42-.58.49-.95.04-.22-.01-.32-.25-.35-1.17-.12-2.3-.39-3.42-.7-1.67-.45-3.22-1.2-4.8-1.88-.82-.35-1.64-.73-2.45-1.11-.91-.43-1.69-1.06-2.52-1.6-1.02-.68-2.05-1.37-2.91-2.25-.96-.98-1.85-2.02-2.67-3.11-1.57-2.1-3.18-4.16-4.9-6.13-2.38-2.74-5.04-5.16-8.08-7.16-1.23-.81-2.58-1.39-3.91-2.03-2.31-1.11-4.67-2.09-7.08-2.94-1.28-.45-2.59-.82-3.9-1.16-.27-.07-.4-.17-.33-.47.06-.25-.04-.46-.24-.64-.31-.26-.63-.48-1.02-.53Z"/>
        <path class="cls-2" d="M65.29,97.21c-.01.11.06.15.12.2.19.14.38.27.57.4.2.14.35.11.47-.12.57-1.05,1.15-2.1,1.73-3.14,1.53-2.72,3.11-5.41,4.6-8.16.87-1.62,1.75-3.24,2.55-4.9.95-1.95,2.1-3.79,3.19-5.66,1.15-1.96,2.29-3.92,3.39-5.9,1.83-3.29,3.67-6.57,5.61-9.79,1.06-1.76,2.03-3.57,2.98-5.4.62-1.21,1.35-2.37,2.06-3.52,1.33-2.15,2.7-4.28,3.93-6.49,1.3-2.34,2.82-4.55,4.15-6.87.68-1.19,1.48-2.31,2.2-3.48.21-.34.36-.71.53-1.07.07-.16.04-.27-.11-.38-.61-.43-.67-.42-1.08.2-1,1.5-1.82,3.1-2.78,4.62-2.18,3.4-4.16,6.93-6.27,10.37-.88,1.44-1.64,2.95-2.44,4.43-1.09,2-2.23,3.98-3.39,5.94-.67,1.12-1.24,2.3-1.9,3.43-2,3.44-4.04,6.87-5.99,10.34-1.33,2.35-2.63,4.71-3.96,7.05-1.58,2.8-3.12,5.62-4.71,8.41-1.16,2.05-2.26,4.13-3.37,6.2-.58,1.08-1.29,2.08-1.95,3.1-.04.07-.08.14-.12.19Z"/>
        <path class="cls-2" d="M139.46,72.11c.17.02.23-.06.29-.15.6-1.02,1.19-2.05,1.78-3.07.21-.36.43-.71.65-1.07.11-.17.09-.27-.13-.34-1.79-.59-3.56-1.25-5.25-2.09-.17-.08-.32-.1-.43.08-.62,1.03-1.35,1.99-1.87,3.08-.18.39-.37.79-.56,1.18-.05.1-.08.18.06.24,1.43.63,2.78,1.42,4.31,1.82.4.1.81.17,1.16.32Z"/>
        <path class="cls-2" d="M126.06,83.47c-.16,0-.23.08-.29.19-.7,1.28-1.55,2.48-2.16,3.81-.02.05-.05.1-.08.15-.19.3-.2.31.12.45,1.72.71,3.41,1.47,5.2,2.01.23.07.33.02.45-.18.75-1.28,1.52-2.54,2.28-3.81.2-.33.2-.33-.15-.48-.63-.25-1.3-.37-1.9-.69-1.06-.55-2.2-.92-3.3-1.39-.06-.03-.14-.04-.18-.05Z"/>
        <path class="cls-3" d="M142.39,67.14c.14,0,.21-.07.27-.17.89-1.23,1.52-2.62,2.35-3.89.11-.16.05-.25-.11-.31-1.72-.64-3.37-1.45-5.04-2.22-.2-.09-.32-.08-.46.12-.92,1.32-1.72,2.72-2.61,4.06-.05.08-.15.15.02.23,1.4.61,2.77,1.32,4.23,1.8.41.13.83.25,1.25.37.03.01.07.01.1.02Z"/>
        <path class="cls-2" d="M134.5,80.7c.17.04.29-.07.39-.24.51-.88,1.06-1.74,1.53-2.64.21-.4.41-.81.68-1.18.11-.15.09-.2-.1-.25-1.19-.34-2.4-.62-3.56-1.04-.7-.25-1.39-.52-2.02-.9-.16-.1-.22-.04-.3.09-.45.68-.81,1.41-1.21,2.12-.3.54-.59,1.09-.88,1.64-.14.27-.1.36.16.51,1.43.79,2.95,1.34,4.54,1.72.19.04.37.11.56.16.05.01.11,0,.2.01Z"/>
        <path class="cls-4" d="M130.27,51.63c-.45.62-.75,1.29-1.09,1.93-.48.9-1.02,1.76-1.55,2.63-.28.45-.27.54.09.92.87.94,1.74,1.89,2.62,2.83.23.24.49.45.74.68.09.09.14.08.2-.03.88-1.4,1.76-2.81,2.65-4.2.06-.09.07-.15-.02-.24-1.28-1.29-2.3-2.8-3.41-4.23-.07-.09-.14-.17-.23-.28Z"/>
        <path class="cls-3" d="M131.71,85.33c.21.02.3-.05.36-.17.68-1.31,1.55-2.52,2.26-3.81.12-.21.14-.3-.15-.35-1.67-.32-3.23-.97-4.73-1.75-.82-.43-.64-.41-1.11.31-.65,1.01-1.28,2.03-1.97,3.02-.27.39-.24.53.21.73.64.28,1.3.52,1.94.82.95.43,1.93.79,2.91,1.13.11.04.23.07.27.08Z"/>
        <path class="cls-3" d="M92.13,62.51c0,.1.1.09.15.11,1.26.53,2.54,1.01,3.84,1.43.27.08.53.17.78.28.2.08.32.04.44-.14.63-1.01,1.32-1.98,1.9-3.03.18-.33.39-.65.62-.95.12-.16.14-.26-.09-.36-1.56-.63-3.11-1.27-4.66-1.92-.15-.07-.23-.05-.33.09-.95,1.39-1.82,2.83-2.58,4.33-.03.05-.05.1-.08.16Z"/>
        <path class="cls-3" d="M105.37,39.85c-.25-.03-.35.08-.43.22-.67,1.28-1.4,2.52-2.14,3.75-.14.23-.03.33.18.41,1.17.42,2.33.88,3.48,1.37.49.21.94.47,1.4.72.14.08.21.09.31-.08.76-1.43,1.54-2.86,2.31-4.29.08-.15.05-.2-.09-.26-1.63-.63-3.25-1.26-4.91-1.81-.06-.02-.12-.03-.11-.03Z"/>
        <path class="cls-4" d="M126.41,47.13c.01-.19-.07-.29-.16-.39-1.14-1.19-2.27-2.39-3.52-3.47-.14-.12-.22-.16-.32.04-.73,1.4-1.62,2.71-2.36,4.11-.11.22,0,.35.13.49.8.89,1.61,1.79,2.41,2.69.29.33.56.69.83,1.04.12.16.2.19.33,0,.92-1.41,1.77-2.87,2.58-4.34.04-.06.05-.14.06-.16Z"/>
        <path class="cls-6" d="M120.82,79.59c.02-.29-.18-.39-.32-.51-.63-.57-1.16-1.24-1.69-1.9-.49-.61-.98-1.21-1.52-1.77-.14-.15-.23-.2-.34.04-.75,1.56-1.51,3.11-2.28,4.66-.08.17-.02.26.07.37.36.44.71.89,1.1,1.32.58.64,1.19,1.27,1.79,1.9.11.11.24.2.35.32.2.22.3.14.41-.08.7-1.38,1.51-2.69,2.3-4.02.07-.13.11-.25.13-.34Z"/>
        <path class="cls-4" d="M126.05,70.23c.2-.15.28-.34.39-.51.76-1.17,1.2-2.5,1.88-3.71.13-.23.08-.44-.08-.64-.34-.43-.69-.85-1.08-1.23-.75-.73-1.41-1.53-2.01-2.37-.06-.08-.13-.16-.19-.24-.14-.18-.26-.19-.38.02-.77,1.27-1.45,2.58-2.09,3.92-.09.18-.07.35.04.53.19.3.38.59.61.86.93,1.05,1.78,2.16,2.74,3.18.06.06.12.14.17.21Z"/>
        <path class="cls-4" d="M109.47,65.74c0,.09.05.13.1.17,1.27,1.2,2.32,2.6,3.49,3.88.21.22.28.22.43-.04.63-1.14,1.35-2.23,2.04-3.34.04-.06.07-.11.1-.17.31-.52.31-.53-.1-.98-.86-.93-1.71-1.87-2.58-2.8-.28-.3-.59-.57-.89-.85-.21-.2-.26-.19-.41.08-.66,1.21-1.31,2.43-1.97,3.64-.07.14-.15.27-.23.4Z"/>
        <path class="cls-6" d="M112.15,61.03c-.02.12.04.21.12.29.52.53,1.03,1.06,1.55,1.6.69.71,1.36,1.43,2.02,2.18.23.27.23.26.43-.03.79-1.11,1.4-2.33,2.06-3.51.14-.26.13-.46-.06-.71-.86-1.08-1.83-2.05-2.89-2.94-.31-.27-.55-.62-.89-.87-.16-.12-.23-.15-.35.06-.69,1.19-1.28,2.44-1.93,3.65-.05.09-.09.18-.07.29Z"/>
        <path class="cls-4" d="M110.93,75.14c0,.12.06.2.11.27,1.03,1.34,1.98,2.75,2.98,4.12.32.43.32.43.56-.03.73-1.46,1.46-2.93,2.2-4.39.1-.2,0-.33-.11-.47-.71-.87-1.42-1.73-2.13-2.6-.32-.39-.64-.79-.95-1.2-.14-.18-.23-.23-.36.02-.37.7-.67,1.44-1.12,2.1-.43.63-.73,1.33-1.1,1.99-.04.06-.06.14-.08.18Z"/>
        <path class="cls-6" d="M123.94,52.23c-.02.1.06.17.11.24.66.93,1.33,1.86,2.08,2.73.25.29.5.59.73.91.14.18.2.2.34,0,.38-.54.7-1.11,1.02-1.68.56-.99,1.04-2.02,1.66-2.98.07-.11.08-.2-.01-.32-.75-1.01-1.57-1.96-2.37-2.92-.18-.21-.36-.42-.52-.64-.12-.17-.18-.15-.29.02-.59.96-1.2,1.9-1.79,2.86-.31.5-.58,1.03-.87,1.54-.04.07-.08.14-.08.24Z"/>
        <path class="cls-4" d="M117.13,52.41c-.73,1.02-1.36,2.07-2.03,3.11-.15.23-.29.48-.45.7-.13.19-.12.35.05.51.84.8,1.66,1.62,2.5,2.41.5.47.9,1.04,1.35,1.55.04.04.08.08.13.14.39-.68.77-1.34,1.15-2,.3-.52.59-1.05.9-1.56.23-.38.21-.72-.06-1.08-.26-.34-.52-.67-.83-.97-.83-.81-1.61-1.66-2.4-2.51-.09-.1-.2-.19-.32-.29Z"/>
        <path class="cls-2" d="M105.42,50.81c.13.02.18-.09.23-.17.68-1.17,1.36-2.33,2.04-3.5.02-.04.04-.09.07-.12.15-.18.06-.28-.11-.38-.81-.47-1.66-.86-2.54-1.18-.8-.29-1.59-.61-2.38-.92-.19-.07-.34-.07-.44.13-.66,1.27-1.37,2.52-1.98,3.82-.08.17-.07.25.14.29,1.05.24,2.06.59,3.04,1.03.52.23,1.01.55,1.5.83.14.08.28.15.43.17Z"/>
        <path class="cls-3" d="M137.27,76.13c.18,0,.23-.12.3-.24.35-.66.71-1.32,1.06-1.98.22-.42.51-.79.77-1.19.15-.23.11-.33-.15-.39-1.89-.42-3.65-1.19-5.37-2.05-.18-.09-.27-.08-.38.11-.67,1.15-1.35,2.3-2.03,3.44-.1.17-.1.23.09.34,1.3.76,2.77,1.06,4.18,1.51.45.14.9.27,1.36.4.06.02.12.03.17.05Z"/>
        <path class="cls-2" d="M104.75,62.81c.02-.13-.04-.21-.15-.29-.5-.35-1.04-.65-1.57-.93-.83-.45-1.68-.87-2.52-1.31-.11-.06-.15-.04-.22.06-.89,1.28-1.73,2.59-2.54,3.91-.18.3-.16.35.18.48,1.1.44,2.2.88,3.25,1.44.4.21.8.42,1.21.62.33.17.39.16.57-.16.58-1.02,1.08-2.09,1.57-3.16.1-.21.25-.4.23-.66Z"/>
        <path class="cls-2" d="M107.92,35.39c-.11-.01-.19.05-.25.16-.69,1.18-1.39,2.36-2.07,3.55-.19.33-.18.35.16.47,1.62.54,3.22,1.15,4.8,1.8.17.07.29.05.4-.12.72-1.2,1.51-2.35,2.29-3.51.1-.15.06-.21-.08-.27-1.39-.56-2.78-1.13-4.16-1.7-.22-.09-.44-.18-.67-.28-.13-.05-.26-.11-.41-.11Z"/>
        <path class="cls-3" d="M100.21,49.14c-.26-.03-.31.11-.37.23-.5.93-1.02,1.84-1.56,2.75-.15.25-.3.51-.46.76-.19.32-.17.37.17.49,1.11.38,2.23.71,3.32,1.16.47.19.93.41,1.39.63.19.09.3.06.4-.12.69-1.2,1.38-2.4,2.07-3.6.08-.13.09-.2-.06-.3-1.49-.99-3.19-1.48-4.88-1.99-.03-.01-.07-.01-.03,0Z"/>
        <path class="cls-4" d="M119.86,70.57c-.2.2-.34.44-.48.68-.6,1.1-1.2,2.19-1.86,3.25-.14.22-.14.39.03.6,1.01,1.19,1.98,2.43,3.02,3.6.39.43.4.44.7-.03.72-1.14,1.39-2.29,1.97-3.5.19-.4.11-.59-.16-.89-.68-.77-1.39-1.51-2.09-2.27-.27-.3-.51-.61-.73-.94-.12-.18-.24-.36-.41-.49Z"/>
        <path class="cls-2" d="M100.18,59.6c.2-.02.36-.13.43-.29.52-1.11,1.26-2.09,1.88-3.14.32-.55.34-.53-.23-.82-1.09-.54-2.23-.93-3.4-1.26-.39-.11-.77-.27-1.14-.42-.25-.1-.4-.05-.54.19-.62,1.12-1.25,2.23-1.88,3.34-.03.05-.05.1-.08.15-.11.16-.06.22.12.28,1.6.51,3.11,1.22,4.63,1.92.07.03.13.07.21.06Z"/>
        <path class="cls-6" d="M107.08,70.34c0,.17.09.27.17.36.77.82,1.47,1.71,2.18,2.58.35.42.67.85,1.02,1.28.07.09.14.25.27.02.75-1.31,1.49-2.62,2.2-3.95.13-.24.08-.39-.09-.58-1.04-1.17-2.07-2.34-3.15-3.47-.42-.44-.41-.53-.72.06-.53,1.02-1.09,2.02-1.63,3.03-.12.22-.21.45-.26.68Z"/>
        <path class="cls-6" d="M119.49,70.17c-.02-.25-.14-.45-.29-.63-.83-1.01-1.62-2.04-2.55-2.96-.1-.1-.19-.21-.26-.33-.14-.25-.21-.16-.33.02-.78,1.23-1.6,2.44-2.34,3.7-.13.22-.11.39.04.57.96,1.18,1.92,2.36,2.89,3.54.06.07.13.13.19.2.27.3.27.3.46-.07.64-1.23,1.4-2.39,2-3.64.07-.14.17-.26.19-.41Z"/>
        <path class="cls-6" d="M138.13,59.49c-.89-.63-1.81-1.21-2.66-1.89-.32-.25-.67-.48-.93-.79-.19-.22-.3-.11-.43.05-.37.44-.65.94-.96,1.42-.41.62-.8,1.26-1.19,1.9-.1.16-.17.35-.28.51-.17.25-.1.46.09.64.78.78,1.61,1.5,2.52,2.11.29.19.57.41.89.55.05-.03.09-.07.12-.12.35-.73,1.01-1.26,1.28-2.04.07-.22.29-.35.43-.54.2-.27.41-.53.52-.85.13-.37.38-.65.6-.96Z"/>
        <path class="cls-2" d="M150.56,64.24c-1.1-.15-2.2-.3-3.25-.63-.48-.15-.95-.29-1.43-.45-.23-.08-.36-.04-.51.17-.73,1.07-1.41,2.17-2.03,3.31-.1.19-.23.36-.35.53-.07.1-.06.16.06.2,1.24.43,2.46.91,3.77,1.07.15.02.32.02.46.07.36.12.56-.04.76-.32.75-1.01,1.34-2.13,2.05-3.17.17-.25.39-.47.46-.79Z"/>
        <path class="cls-3" d="M147.63,68.94c-.37-.06-.73-.13-1.1-.18-1.21-.17-2.36-.53-3.49-.97-.24-.1-.36-.04-.49.18-.78,1.34-1.58,2.68-2.39,4-.15.24-.1.31.15.36,1.23.28,2.47.49,3.72.61.26.03.51.06.77.1.41.07.52.02.76-.35.46-.73.9-1.46,1.25-2.25.21-.47.5-.9.75-1.36.02-.04.03-.09.06-.16Z"/>
        <path class="cls-6" d="M121.18,56.29c.18-.32.34-.6.49-.89.42-.79.82-1.57,1.24-2.36.07-.14.18-.26.25-.4.16-.31.13-.55-.11-.81-.54-.59-.99-1.26-1.51-1.87-.54-.64-1.1-1.24-1.69-1.84-.11-.12-.15-.06-.22.05-.51.84-1.02,1.67-1.52,2.51-.22.36-.43.73-.66,1.09-.13.21-.12.36.06.53.43.42.86.84,1.28,1.28.82.86,1.77,1.6,2.4,2.7Z"/>
        <path class="cls-2" d="M134.96,81.25c-.22-.01-.27.15-.35.27-.51.83-1,1.66-1.51,2.49-.27.44-.53.87-.73,1.34-.08.18-.04.23.12.28,1.42.42,2.83.85,4.24,1.29.22.07.26-.09.32-.2.36-.62.68-1.25,1.05-1.86.48-.77.78-1.64,1.34-2.36.07-.09.14-.21-.08-.25-1.45-.3-2.91-.59-4.34-.99-.03,0-.07,0-.08-.01Z"/>
        <path class="cls-6" d="M128.6,65.38c.51-.92.99-1.76,1.46-2.61.26-.47.52-.94.79-1.4.1-.17.08-.27-.06-.41-.61-.59-1.19-1.19-1.8-1.78-.6-.58-1.11-1.24-1.67-1.85-.16-.17-.23-.17-.33.05-.35.8-.87,1.5-1.32,2.24-.22.36-.45.72-.63,1.11-.07.14-.06.26.04.38.48.58.98,1.13,1.4,1.75.62.89,1.52,1.53,2.11,2.52Z"/>
        <path class="cls-2" d="M112.25,48.53c.14,0,.21-.09.26-.18.77-1.39,1.69-2.7,2.43-4.11.11-.2.06-.28-.11-.38-1.18-.66-2.36-1.31-3.6-1.86-.19-.08-.25-.04-.33.12-.67,1.22-1.35,2.43-2.03,3.64-.11.19-.22.39-.33.58-.11.18-.09.32.12.39.94.31,1.76.86,2.62,1.33.27.15.56.28.85.42.05.02.1.04.13.05Z"/>
        <path class="cls-6" d="M120.05,70.1c.03.14.06.25.15.36.9,1.16,1.89,2.25,2.91,3.31.14.14.23.31.4.42.13.09.21.1.31-.04.42-.56.77-1.15,1.1-1.76.29-.54.6-1.06.85-1.62.09-.19.1-.34-.07-.47-.85-.73-1.47-1.65-2.21-2.47-.3-.33-.67-.6-.92-1-.09-.14-.2-.27-.28-.41-.11-.21-.21-.14-.3.01-.15.25-.3.51-.44.77-.48.9-.96,1.8-1.43,2.7-.03.06-.06.14-.08.2Z"/>
        <path class="cls-3" d="M134.34,91.43c.1.03.13-.04.17-.11.71-1.28,1.42-2.55,2.13-3.83.15-.28-.07-.29-.23-.34-1.3-.39-2.6-.78-3.9-1.17-.39-.12-.39-.12-.6.25-.74,1.28-1.48,2.56-2.23,3.83-.1.17-.11.22.11.27,1.5.35,2.99.71,4.48,1.06.03,0,.05.01.08.02Z"/>
        <path class="cls-6" d="M119.05,61.18c-.03.17.08.28.17.39.86,1.19,1.73,2.36,2.65,3.51.18.23.26.23.4-.04.15-.29.29-.6.45-.89.53-1,1.07-1.99,1.67-2.94.13-.21.1-.36-.06-.54-.99-1.15-2.04-2.24-2.93-3.47-.13-.17-.2-.12-.29.03-.5.92-1.01,1.83-1.51,2.74-.16.3-.32.6-.48.91-.05.09-.1.18-.08.29Z"/>
        <path class="cls-2" d="M90.28,56.75c-.19-.02-.31.08-.39.23-.78,1.35-1.55,2.69-2.34,4.04-.14.24-.07.3.16.37,1.05.31,2.12.49,3.17.77.19.05.36.14.53.23.18.1.31.07.41-.12.73-1.34,1.45-2.69,2.31-3.95,0-.01.02-.03.02-.05.3-.49.3-.48-.23-.67-.99-.36-2.04-.51-3.07-.71-.2-.04-.4-.08-.59-.13Z"/>
        <path class="cls-4" d="M116.41,65.65c0,.18.11.29.21.41.83.96,1.66,1.92,2.49,2.88.15.18.29.36.41.56.15.25.24.25.39,0,.49-.76.92-1.56,1.33-2.38.18-.36.35-.71.54-1.06.1-.19.1-.36-.03-.54-.93-1.26-1.86-2.52-2.79-3.78-.14-.18-.2-.14-.31.03-.73,1.21-1.39,2.47-2.17,3.65-.05.07-.07.15-.07.24Z"/>
        <path class="cls-3" d="M103.23,55.85c-.12,0-.18.07-.23.16-.68,1.13-1.43,2.22-2.16,3.33-.04.06-.07.13-.11.19-.15.23-.09.38.15.51,1.34.7,2.71,1.37,3.99,2.17.15.1.18.01.24-.1.36-.71.68-1.44.98-2.17.23-.55.53-1.06.83-1.57.21-.36.19-.43-.17-.63-1.08-.6-2.15-1.22-3.26-1.77-.09-.05-.18-.09-.26-.12Z"/>
        <path class="cls-3" d="M142.24,77.98c-1.4-.37-2.74-.82-4.09-1.24-.55-.17-.55-.17-.85.32-.71,1.17-1.43,2.33-2.14,3.5-.19.31-.17.38.19.46,1.32.29,2.65.58,3.98.88.3.07.48,0,.64-.27.69-1.13,1.4-2.24,2.1-3.36.05-.09.1-.18.17-.3Z"/>
        <path class="cls-4" d="M134.9,64.38c-.44-.31-.88-.61-1.32-.92-.76-.55-1.47-1.16-2.12-1.84-.13-.13-.19-.15-.3.02-.26.4-.5.8-.7,1.23-.4.83-.9,1.62-1.35,2.42-.2.36-.2.45.08.73.87.9,1.68,1.86,2.7,2.6.07.05.15.11.22.16.03,0,.06-.01.07-.04.39-.68,1.03-1.22,1.24-2.01.02-.09.08-.17.15-.23.41-.39.67-.88.88-1.39.08-.19.22-.32.33-.48.05-.08.16-.14.12-.26Z"/>
        <path class="cls-6" d="M116.2,44.3c.77.54,1.43,1.22,2.16,1.81.21.17.41.35.55.58.14.24.37.38.58.54.13.1.21.06.28-.07.29-.51.59-1.02.88-1.54.45-.82.89-1.66,1.35-2.48.12-.22.13-.36-.1-.53-1.06-.78-2.1-1.6-3.19-2.34-.07-.04-.15-.07-.23-.1-.18.08-.24.25-.29.42-.14.41-.35.77-.61,1.11-.21.27-.36.58-.46.91-.07.22-.17.4-.31.58-.27.33-.49.7-.6,1.11Z"/>
        <path class="cls-2" d="M142.32,77.65c.14.03.21-.13.29-.26.58-.92,1.14-1.84,1.72-2.76.22-.34.45-.68.67-1.02.08-.12.11-.2-.1-.23-.95-.13-1.9-.28-2.84-.43-.61-.1-1.21-.22-1.82-.36-.25-.06-.4,0-.52.23-.6,1.06-1.16,2.15-1.82,3.18-.09.13-.11.24.08.3,1.39.43,2.77.93,4.17,1.33.04,0,.07,0,.17.02Z"/>
        <path class="cls-4" d="M123.65,52.61c-.63,1.17-1.37,2.22-1.89,3.4-.36.83-.41.58.19,1.29.82.97,1.57,1.99,2.41,2.95.38.43.37.44.65-.06.55-.97,1.09-1.93,1.64-2.9.23-.41.22-.5-.07-.87-.85-1.07-1.69-2.13-2.54-3.2-.14-.18-.25-.39-.39-.61Z"/>
        <path class="cls-4" d="M113.59,49.25c.62.44,1.29.79,1.9,1.24.48.36.95.74,1.36,1.19.13.15.17.09.26-.03.46-.6.81-1.28,1.21-1.93.32-.52.63-1.05.93-1.58.2-.35.19-.41-.1-.69-.98-.95-1.96-1.89-3.05-2.71-.26.12-.39.37-.51.6-.31.62-.56,1.26-1,1.81-.02.02-.03.05-.04.07-.18.59-.51,1.1-.86,1.6-.09.12-.19.26-.1.43Z"/>
        <path class="cls-2" d="M97.1,53.04c.16.03.25-.08.34-.2.79-1.16,1.44-2.42,2.06-3.68.1-.19-.02-.21-.16-.25-.93-.27-1.86-.54-2.79-.83-.25-.08-.48-.18-.72-.28-.38-.16-.46-.15-.68.2-.26.4-.51.82-.76,1.22-.52.82-1.03,1.65-1.56,2.46-.11.16-.09.22.09.28.53.16,1.09.18,1.63.31.74.18,1.45.43,2.17.67.13.04.24.1.38.09Z"/>
        <path class="cls-2" d="M103.41,55.32c-.02.17.1.25.23.31.67.34,1.34.67,2,1.03.44.24.86.51,1.29.76.34.2.42.18.6-.17.58-1.13,1.24-2.21,1.87-3.31.23-.4.18-.51-.22-.74-1.05-.6-2.13-1.11-3.22-1.63-.19-.09-.31-.09-.44.12-.66,1.14-1.29,2.29-2.03,3.38-.05.07-.09.16-.08.26Z"/>
        <path class="cls-3" d="M105.89,51c-.02.1.07.1.11.13,1.22.62,2.44,1.24,3.65,1.87.14.07.19.03.25-.09.7-1.26,1.41-2.51,2.12-3.77.1-.17.06-.26-.11-.35-1.11-.62-2.27-1.17-3.4-1.74-.14-.07-.28-.11-.38.08-.67,1.28-1.41,2.51-2.18,3.73-.03.05-.05.1-.08.15Z"/>
        <path class="cls-3" d="M92.76,52.37c-.19-.01-.3.07-.39.21-.73,1.18-1.42,2.38-2.06,3.61-.08.14-.04.17.1.19,1.41.13,2.77.46,4.08.97.16.06.26.02.35-.12.72-1.18,1.4-2.39,2.07-3.61.08-.15.01-.16-.1-.2-1.22-.44-2.47-.77-3.74-.99-.11-.02-.22-.04-.3-.05Z"/>
        <path class="cls-2" d="M100.92,38.57c-.14,0-.19.09-.25.17-.86,1.3-1.63,2.65-2.39,4-.09.17-.15.27.14.29,1.24.1,2.43.44,3.6.82.2.06.3.03.4-.15.7-1.21,1.42-2.4,2.13-3.61.04-.06.06-.12.09-.17.12-.17.1-.26-.12-.33-1.07-.32-2.13-.66-3.22-.92-.13-.03-.27-.07-.38-.11Z"/>
        <path class="cls-6" d="M111.03,53.87c.74.55,1.48,1.1,2.21,1.66.24.18.47.39.69.6.15.14.27.16.39-.05.56-1.02,1.23-1.98,1.87-2.95.19-.28.35-.58.55-.86.09-.13.05-.19-.04-.28-.98-.93-2.08-1.72-3.27-2.36-.42.48-.78.99-.97,1.6-.06.18-.14.34-.26.49-.31.39-.53.82-.68,1.29-.07.22-.21.39-.34.57-.06.09-.15.16-.15.29Z"/>
        <path class="cls-3" d="M113.69,37.7c-.15.35-.4.63-.6.93-.49.73-.98,1.46-1.42,2.22-.09.15-.2.29-.3.43-.19.25-.18.32.11.45.82.37,1.65.74,2.45,1.18.34.19.67.38,1.01.58.19.11.31.1.42-.11.63-1.18,1.28-2.35,1.92-3.53.18-.34.18-.35-.16-.51-1.14-.55-2.27-1.09-3.41-1.64Z"/>
        <path class="cls-5" d="M102.02,44.32c-1.3-.42-2.6-.79-3.95-.86-.17,0-.29.05-.38.19-.67,1.14-1.35,2.28-2.02,3.42-.13.22.03.27.2.32,1.04.33,2.08.66,3.12.98.74.23.74.22,1.11-.45.64-1.19,1.28-2.38,1.92-3.58Z"/>
        <path class="cls-6" d="M132.02,69.17c-1.01-.77-1.94-1.63-2.84-2.52-.14-.14-.24-.3-.35-.47-.08-.13-.14-.11-.21,0-.2.33-.36.69-.51,1.05-.4.94-.95,1.79-1.44,2.69-.06.11-.11.21-.17.32-.1.17-.06.32.09.44.99.78,1.95,1.61,3.03,2.28.08-.06.14-.14.17-.22.22-.68.79-1.13,1.09-1.75.3-.61.68-1.15,1.08-1.69.03-.04.05-.08.06-.12Z"/>
        <path class="cls-3" d="M107.42,35.14c-1.19-.31-2.35-.65-3.51-1.01-.21-.06-.35,0-.47.18-.75,1.17-1.5,2.33-2.25,3.5-.21.33-.21.33.17.45,1.09.33,2.19.67,3.29,1,.22.07.37.04.5-.19.7-1.22,1.51-2.38,2.14-3.63.05-.1.09-.2.13-.31Z"/>
        <path class="cls-4" d="M108.75,58.54c.46.39.96.71,1.45,1.06.42.31.83.62,1.19.99.24.24.35.23.55-.06.43-.6.71-1.28,1.04-1.92.3-.58.58-1.17.88-1.75.1-.18.06-.32-.08-.44-.93-.78-1.9-1.51-2.91-2.17-.14.05-.17.19-.2.31-.07.23-.18.44-.33.63-.24.31-.44.64-.56,1.01-.11.33-.26.62-.48.9-.24.31-.39.67-.51,1.04-.04.12-.11.26-.03.4Z"/>
        <path class="cls-4" d="M129.46,73.23c-1.05-.79-2.14-1.53-3.15-2.36-.1-.08-.16-.1-.22.04-.52,1.23-1.27,2.33-1.95,3.48-.1.17-.1.29.04.44.77.87,1.65,1.62,2.54,2.36.29-.14.44-.41.62-.65.09-.12.16-.25.22-.38.19-.39.37-.78.7-1.08.19-.17.33-.41.43-.64.19-.44.43-.85.76-1.21Z"/>
        <path class="cls-6" d="M106.3,63.06c1.02.61,1.83,1.46,2.65,2.29.16.17.22.14.32-.06.63-1.25,1.3-2.47,2.02-3.67.26-.43.25-.46-.14-.76-.89-.69-1.76-1.4-2.69-2.05-.22.15-.32.38-.4.62-.17.49-.43.92-.67,1.36-.37.69-.65,1.42-1.07,2.09-.03.05-.03.11-.03.16Z"/>
        <path class="cls-4" d="M103.9,67.85c.92.67,1.8,1.39,2.66,2.13.19.16.22-.02.27-.11.58-.97,1.13-1.97,1.63-2.99.13-.26.26-.53.4-.79.07-.13.07-.25-.04-.35-.84-.81-1.61-1.71-2.69-2.24-.37.58-.79,1.14-.95,1.83-.03.14-.14.24-.22.35-.18.26-.35.53-.46.82-.14.39-.3.78-.55,1.11-.05.07-.09.14-.05.23Z"/>
        <path class="cls-6" d="M126.61,77.52c-.75-.63-1.51-1.27-2.26-1.91-.12-.11-.21-.25-.33-.37-.17-.18-.3-.16-.41.06-.54,1.07-1.21,2.07-1.81,3.11-.13.23-.27.47-.4.7-.1.17-.09.32.06.47.43.45.95.78,1.43,1.17.33.27.61.6,1.01.77.18-.07.21-.25.28-.39.09-.2.19-.4.35-.56.39-.36.68-.8.89-1.29.07-.15.14-.3.27-.42.41-.38.69-.84.93-1.34Z"/>
        <path class="cls-4" d="M123.73,81.85c-.77-.58-1.51-1.21-2.25-1.84-.28-.24-.38-.22-.55.1-.73,1.34-1.46,2.67-2.19,4.01-.22.4-.21.43.13.72.55.46,1.08.95,1.68,1.36.42-.56.99-1.02,1.26-1.69.08-.2.2-.38.36-.52.4-.37.7-.81.9-1.32.06-.14.16-.25.27-.35.14-.14.29-.29.39-.46Z"/>
        <path class="cls-3" d="M123.73,81.85c-.29.21-.56.45-.71.78-.22.48-.5.93-.88,1.29-.15.15-.28.31-.37.51-.18.43-.44.81-.78,1.13-.19.18-.34.39-.44.63.72.61,1.56,1.04,2.38,1.51.16.09.16-.06.2-.13.68-1.18,1.36-2.37,2.03-3.56.15-.27.47-.56.4-.81-.07-.23-.45-.37-.7-.55-.37-.27-.75-.54-1.12-.81Z"/>
        <path class="cls-2" d="M126.61,77.52c-.13.01-.15.13-.19.22-.13.29-.29.57-.52.78-.33.31-.53.68-.72,1.07-.13.28-.3.54-.53.74-.31.28-.5.63-.66,1-.03.07-.07.13-.11.19.44.37.93.67,1.4.99q.49.34.85-.16c.77-1.09,1.4-2.26,2.15-3.35.11-.16.08-.25-.07-.35-.54-.37-1.07-.75-1.61-1.13Z"/>
        <path class="cls-3" d="M129.46,73.23c-.27.17-.48.4-.6.7-.2.51-.49.97-.88,1.36-.11.11-.19.22-.24.36-.23.58-.59,1.08-1.02,1.54.48.49,1.07.81,1.65,1.14.19.11.28,0,.37-.15.48-.89.98-1.77,1.47-2.66.2-.36.39-.71.58-1.07.11-.2.06-.34-.15-.45-.42-.22-.79-.5-1.18-.76Z"/>
        <path class="cls-3" d="M134.9,64.38c-.31.35-.54.74-.72,1.17-.1.25-.25.48-.44.67-.27.26-.42.57-.56.91-.12.32-.32.61-.55.86-.22.24-.42.49-.53.8.33.34.72.6,1.15.79.15.07.23.06.32-.1.81-1.41,1.62-2.81,2.44-4.21.07-.12.1-.19-.06-.27-.36-.2-.71-.41-1.07-.62Z"/>
        <path class="cls-2" d="M132.02,69.17c-.33.4-.72.77-.93,1.25-.23.53-.52,1-.92,1.4-.13.13-.15.29-.23.44-.11.23-.21.46-.32.69.43.27.86.54,1.29.81.12.07.17.04.23-.08.67-1.14,1.35-2.27,2.04-3.4.09-.15.1-.24-.08-.35-.38-.24-.73-.51-1.09-.76Z"/>
        <path class="cls-2" d="M138.13,59.49c-.36.22-.51.59-.67.96-.19.43-.48.79-.78,1.13-.1.11-.18.23-.23.37-.2.51-.53.94-.89,1.35-.17.2-.26.46-.38.7.31.19.62.37.91.58.18.13.29.07.39-.08.46-.69.93-1.38,1.38-2.08.42-.67.82-1.37,1.23-2.04.07-.11.11-.18-.03-.26-.31-.19-.62-.41-.92-.61Z"/>
        <path class="cls-2" d="M106.3,63.06c.29-.57.65-1.1.92-1.69.38-.82.79-1.64,1.23-2.44.02-.03.02-.07.03-.1-.25-.2-.52-.37-.81-.52-.18-.09-.26-.04-.34.11-.43.78-.8,1.58-1.18,2.39-.2.42-.4.83-.58,1.26-.14.32-.2.46.2.68.19.1.36.22.55.33Z"/>
        <path class="cls-3" d="M108.75,58.54c.15-.63.41-1.21.83-1.71.2-.24.21-.57.35-.84.16-.32.33-.62.56-.89.22-.25.2-.59.38-.86-.19-.14-.39-.28-.58-.43-.18-.14-.31-.1-.42.1-.5.89-1.01,1.77-1.52,2.65-.2.34-.39.69-.6,1.03-.08.13-.1.21.06.31.32.2.6.46.94.63Z"/>
        <path class="cls-3" d="M103.9,67.85c.45-.56.58-1.3.96-1.89.22-.33.43-.66.54-1.05.11-.37.33-.7.56-1.01.09-.12.2-.23.16-.4-.25-.17-.51-.33-.75-.52-.15-.12-.21-.09-.29.08-.5,1.15-1.06,2.28-1.64,3.39-.1.19-.21.37-.29.57-.08.18-.05.33.15.44.21.11.4.26.59.39Z"/>
        <path class="cls-2" d="M111.03,53.87c.33-.33.54-.73.69-1.17.11-.33.29-.63.52-.9.09-.11.18-.22.22-.35.17-.6.47-1.11.87-1.58.05-.06.07-.15.1-.22-.22-.15-.44-.3-.67-.44-.16-.1-.3-.11-.41.1-.65,1.25-1.38,2.46-1.99,3.74-.11.23-.09.37.14.49.18.1.35.23.53.35Z"/>
        <path class="cls-3" d="M113.59,49.25c.08-.37.31-.66.54-.95.11-.13.19-.27.24-.43.15-.5.4-.95.75-1.34.1-.11.13-.24.17-.38.18-.52.46-.99.81-1.41,0,0,0-.02-.01-.03-.21-.18-.45-.45-.68-.44-.24,0-.3.39-.43.61-.72,1.22-1.42,2.45-2.14,3.67-.1.16-.07.24.09.32.23.12.45.25.67.38Z"/>
        <path class="cls-2" d="M116.2,44.3c.08-.03.1-.1.13-.17.15-.35.33-.68.59-.97.12-.14.2-.29.26-.48.1-.37.28-.7.52-1.01.2-.26.4-.52.49-.86.06-.23.19-.44.32-.64-.02-.03-.05-.06-.08-.08-.62-.41-.66-.4-1.02.26-.56,1.04-1.16,2.06-1.7,3.12-.14.27-.09.43.14.58.12.08.24.17.36.25Z"/>
      </g>
      <g>
        <path class="cls-1" d="M48.5,32.1c.35.01.56.19.73.44.56.85,1.06,1.74,1.56,2.62,1.29,2.27,2.76,4.43,4.05,6.69,1.66,2.9,3.51,5.68,5.09,8.63,2.14,4,4.42,7.93,6.66,11.88,1.74,3.08,3.59,6.11,5.34,9.18,1.29,2.27,2.51,4.59,3.82,6.86,2.92,5.05,5.68,10.19,8.51,15.29.55.99,1.14,1.94,1.74,2.9.08.13.2.25.29.37.22.31.18.57-.13.79-.28.19-.56.39-.87.54-.48.22-.7.16-.97-.29-.84-1.41-1.62-2.86-2.37-4.33-.98-1.9-2.11-3.72-3.2-5.55-1.04-1.75-1.93-3.57-2.85-5.39-1.11-2.21-2.34-4.37-3.59-6.5-2.23-3.8-4.39-7.63-6.54-11.47-.53-.94-1.1-1.86-1.64-2.8-.11-.2-.27-.15-.43-.1-.6.18-1.2.38-1.81.53-3.34.84-6.54,2.1-9.72,3.39-.94.38-1.85.85-2.75,1.31-.88.45-1.62,1.11-2.4,1.7-.99.76-2.02,1.48-2.84,2.44-1.39,1.63-2.77,3.26-3.99,5.04-1.03,1.5-2.09,2.99-3.23,4.4-1.37,1.69-2.8,3.33-4.44,4.77-2.02,1.78-4.33,3.07-6.83,4.07-2.27.9-4.61,1.52-6.99,2.04-.62.14-1.23.29-1.84.42-.46.1-.49.08-.72-.33-1.49-2.72-2.94-5.45-4.47-8.15-.85-1.5-1.82-2.92-2.71-4.39-.76-1.26-1.61-2.46-2.35-3.73-.95-1.62-1.97-3.19-2.83-4.87-.96-1.87-2.06-3.66-3.27-5.38-.21-.29-.42-.58-.49-.95-.04-.22.01-.32.25-.35,1.16-.12,2.3-.39,3.42-.7,1.67-.45,3.22-1.2,4.8-1.88.82-.35,1.64-.73,2.45-1.11.91-.43,1.69-1.06,2.52-1.6,1.02-.68,2.05-1.37,2.91-2.25.96-.98,1.85-2.02,2.67-3.11,1.57-2.1,3.18-4.16,4.9-6.13,2.38-2.74,5.04-5.16,8.08-7.16,1.23-.81,2.58-1.39,3.91-2.03,2.31-1.11,4.67-2.09,7.09-2.94,1.28-.45,2.59-.82,3.91-1.16.27-.07.4-.17.32-.47-.06-.25.04-.46.24-.64.31-.26.63-.48,1.01-.53Z"/>
        <path class="cls-2" d="M85.88,97.21c.01.11-.06.15-.12.2-.19.14-.38.27-.57.4-.2.14-.35.11-.47-.12-.57-1.05-1.15-2.1-1.73-3.14-1.53-2.72-3.11-5.41-4.6-8.16-.87-1.62-1.75-3.24-2.55-4.9-.95-1.95-2.1-3.79-3.19-5.66-1.15-1.96-2.29-3.92-3.39-5.9-1.83-3.29-3.67-6.57-5.61-9.79-1.06-1.76-2.04-3.57-2.98-5.4-.62-1.21-1.35-2.37-2.07-3.52-1.33-2.15-2.7-4.28-3.92-6.49-1.3-2.34-2.82-4.55-4.15-6.87-.68-1.19-1.48-2.31-2.2-3.48-.21-.34-.37-.71-.53-1.07-.07-.16-.04-.27.11-.38.61-.43.67-.42,1.08.2,1,1.5,1.81,3.1,2.78,4.62,2.18,3.4,4.16,6.93,6.27,10.37.88,1.44,1.64,2.95,2.44,4.43,1.09,2,2.22,3.98,3.39,5.94.67,1.12,1.24,2.3,1.9,3.43,2,3.44,4.04,6.87,5.99,10.34,1.33,2.35,2.63,4.71,3.96,7.05,1.58,2.8,3.12,5.62,4.71,8.41,1.16,2.05,2.25,4.13,3.37,6.2.58,1.08,1.29,2.08,1.95,3.1.04.07.09.14.12.19Z"/>
        <path class="cls-2" d="M11.7,72.11c-.17.02-.23-.06-.29-.15-.6-1.02-1.19-2.05-1.79-3.07-.21-.36-.43-.71-.64-1.07-.11-.17-.1-.27.12-.34,1.79-.59,3.56-1.25,5.25-2.09.17-.08.32-.1.43.08.62,1.03,1.35,1.99,1.87,3.08.18.39.37.79.56,1.18.05.1.08.18-.06.24-1.43.63-2.79,1.42-4.31,1.82-.4.1-.81.17-1.16.32Z"/>
        <path class="cls-2" d="M25.1,83.47c.16,0,.23.08.29.19.71,1.28,1.55,2.48,2.16,3.81.02.05.04.1.08.15.19.3.2.31-.12.45-1.72.71-3.42,1.47-5.2,2.01-.23.07-.34.02-.46-.18-.75-1.28-1.52-2.54-2.28-3.81-.2-.33-.2-.33.15-.48.63-.25,1.29-.37,1.9-.69,1.06-.55,2.2-.92,3.29-1.39.07-.03.14-.04.18-.05Z"/>
        <path class="cls-3" d="M8.78,67.14c-.14,0-.21-.07-.28-.17-.89-1.23-1.52-2.62-2.35-3.89-.11-.16-.05-.25.11-.31,1.73-.64,3.37-1.45,5.04-2.22.2-.09.32-.08.46.12.92,1.32,1.72,2.72,2.62,4.06.05.08.15.15-.02.23-1.4.61-2.76,1.32-4.23,1.8-.41.13-.83.25-1.25.37-.04.01-.07.01-.1.02Z"/>
        <path class="cls-2" d="M16.66,80.7c-.17.04-.29-.07-.39-.24-.51-.88-1.06-1.74-1.53-2.64-.21-.4-.41-.81-.68-1.18-.11-.15-.09-.2.1-.25,1.19-.34,2.4-.62,3.57-1.04.7-.25,1.38-.52,2.02-.9.16-.1.22-.04.3.09.45.68.82,1.41,1.21,2.12.3.54.59,1.09.88,1.64.14.27.1.36-.16.51-1.43.79-2.95,1.34-4.54,1.72-.19.04-.37.11-.56.16-.05.01-.11,0-.2.01Z"/>
        <path class="cls-4" d="M20.9,51.63c.44.62.75,1.29,1.09,1.93.48.9,1.02,1.76,1.55,2.63.28.45.27.54-.09.92-.87.94-1.74,1.89-2.63,2.83-.23.24-.49.45-.74.68-.09.09-.13.08-.2-.03-.88-1.4-1.76-2.81-2.65-4.2-.06-.09-.07-.15.02-.24,1.28-1.29,2.3-2.8,3.41-4.23.07-.09.14-.17.23-.28Z"/>
        <path class="cls-3" d="M19.46,85.33c-.21.02-.3-.05-.37-.17-.68-1.31-1.55-2.52-2.26-3.81-.12-.21-.14-.3.15-.35,1.68-.32,3.23-.97,4.73-1.75.82-.43.64-.41,1.11.31.65,1.01,1.28,2.03,1.97,3.02.27.39.24.53-.21.73-.64.28-1.3.52-1.94.82-.95.43-1.93.79-2.91,1.13-.11.04-.23.07-.27.08Z"/>
        <path class="cls-3" d="M59.03,62.51c0,.1-.1.09-.15.11-1.26.53-2.54,1.01-3.84,1.43-.26.08-.53.17-.78.28-.2.08-.32.04-.44-.14-.63-1.01-1.32-1.98-1.9-3.03-.19-.33-.39-.65-.62-.95-.12-.16-.14-.26.1-.36,1.56-.63,3.11-1.27,4.66-1.92.15-.07.24-.05.34.09.95,1.39,1.82,2.83,2.58,4.33.02.05.05.1.08.16Z"/>
        <path class="cls-3" d="M45.79,39.85c.25-.03.35.08.43.22.67,1.28,1.4,2.52,2.14,3.75.14.23.03.33-.18.41-1.17.42-2.33.88-3.48,1.37-.49.21-.95.47-1.4.72-.15.08-.21.09-.3-.08-.77-1.43-1.54-2.86-2.32-4.29-.08-.15-.05-.2.09-.26,1.63-.63,3.25-1.26,4.91-1.81.06-.02.13-.03.11-.03Z"/>
        <path class="cls-4" d="M24.75,47.13c-.01-.19.07-.29.16-.39,1.14-1.19,2.27-2.39,3.52-3.47.14-.12.21-.16.32.04.73,1.4,1.62,2.71,2.35,4.11.12.22,0,.35-.12.49-.81.89-1.62,1.79-2.41,2.69-.29.33-.56.69-.83,1.04-.12.16-.2.19-.33,0-.92-1.41-1.77-2.87-2.59-4.34-.03-.06-.05-.14-.06-.16Z"/>
        <path class="cls-6" d="M30.34,79.59c-.02-.29.18-.39.32-.51.63-.57,1.16-1.24,1.69-1.9.49-.61.98-1.21,1.51-1.77.15-.15.23-.2.34.04.75,1.56,1.51,3.11,2.28,4.66.08.17.02.26-.07.37-.36.44-.71.89-1.1,1.32-.58.64-1.19,1.27-1.79,1.9-.11.11-.24.2-.35.32-.2.22-.29.14-.41-.08-.7-1.38-1.51-2.69-2.3-4.02-.07-.13-.11-.25-.13-.34Z"/>
        <path class="cls-4" d="M25.11,70.23c-.2-.15-.28-.34-.39-.51-.76-1.17-1.2-2.5-1.88-3.71-.13-.23-.08-.44.08-.64.34-.43.69-.85,1.09-1.23.75-.73,1.41-1.53,2.01-2.37.06-.08.12-.16.19-.24.13-.18.26-.19.38.02.77,1.27,1.45,2.58,2.09,3.92.09.18.07.35-.04.53-.19.3-.38.59-.62.86-.93,1.05-1.78,2.16-2.74,3.18-.06.06-.12.14-.17.21Z"/>
        <path class="cls-4" d="M41.69,65.74c0,.09-.06.13-.1.17-1.27,1.2-2.32,2.6-3.5,3.88-.2.22-.28.22-.43-.04-.63-1.14-1.35-2.23-2.04-3.34-.04-.06-.07-.11-.1-.17-.31-.52-.31-.53.1-.98.86-.93,1.72-1.87,2.58-2.8.28-.3.59-.57.89-.85.21-.2.26-.19.4.08.66,1.21,1.31,2.43,1.97,3.64.07.14.15.27.23.4Z"/>
        <path class="cls-6" d="M39.02,61.03c.02.12-.04.21-.12.29-.52.53-1.03,1.06-1.55,1.6-.69.71-1.36,1.43-2.01,2.18-.23.27-.22.26-.43-.03-.79-1.11-1.4-2.33-2.06-3.51-.14-.26-.13-.46.06-.71.86-1.08,1.82-2.06,2.88-2.94.32-.27.55-.62.89-.87.16-.12.23-.15.35.06.69,1.19,1.28,2.44,1.93,3.65.05.09.09.18.07.29Z"/>
        <path class="cls-4" d="M40.23,75.14c0,.12-.06.2-.12.27-1.03,1.34-1.98,2.75-2.98,4.12-.32.43-.32.43-.55-.03-.73-1.46-1.46-2.93-2.2-4.39-.1-.2,0-.33.1-.47.71-.87,1.42-1.73,2.13-2.6.32-.39.64-.79.95-1.2.14-.18.23-.23.36.02.37.7.67,1.44,1.12,2.1.43.63.73,1.33,1.1,1.99.03.06.06.14.08.18Z"/>
        <path class="cls-6" d="M27.22,52.23c.02.1-.06.17-.11.24-.66.93-1.33,1.86-2.08,2.73-.25.29-.5.59-.73.91-.13.18-.2.2-.34,0-.38-.54-.71-1.11-1.03-1.68-.55-.99-1.04-2.02-1.66-2.98-.07-.11-.08-.2.01-.32.75-1.01,1.57-1.96,2.37-2.92.18-.21.36-.42.53-.64.12-.17.18-.15.29.02.59.96,1.2,1.9,1.79,2.86.31.5.59,1.03.88,1.54.04.07.08.14.07.24Z"/>
        <path class="cls-4" d="M34.03,52.41c.73,1.02,1.36,2.07,2.03,3.11.15.23.29.48.45.7.13.19.12.35-.05.51-.84.8-1.65,1.62-2.5,2.42-.5.47-.9,1.03-1.35,1.55-.04.04-.07.08-.13.14-.39-.68-.77-1.34-1.15-2-.3-.52-.59-1.05-.9-1.56-.23-.38-.21-.72.06-1.08.26-.34.52-.67.83-.97.83-.81,1.62-1.66,2.4-2.51.1-.1.2-.19.31-.29Z"/>
        <path class="cls-2" d="M45.74,50.81c-.13.02-.18-.09-.23-.17-.68-1.17-1.36-2.33-2.04-3.5-.02-.04-.04-.09-.07-.12-.15-.18-.06-.28.11-.38.81-.47,1.66-.86,2.53-1.18.8-.29,1.59-.61,2.38-.92.19-.07.34-.07.44.13.66,1.27,1.37,2.52,1.98,3.82.08.17.07.25-.14.29-1.05.24-2.06.59-3.04,1.03-.53.23-1.01.55-1.5.83-.14.08-.27.15-.43.17Z"/>
        <path class="cls-3" d="M13.9,76.13c-.18,0-.24-.12-.3-.24-.35-.66-.71-1.32-1.06-1.98-.22-.42-.51-.79-.77-1.19-.15-.23-.11-.33.15-.39,1.89-.42,3.65-1.19,5.37-2.05.18-.09.27-.08.38.11.66,1.15,1.34,2.3,2.02,3.44.1.17.1.23-.09.34-1.3.76-2.77,1.06-4.19,1.51-.45.14-.9.27-1.36.4-.06.02-.12.03-.16.05Z"/>
        <path class="cls-2" d="M46.42,62.81c-.02-.13.04-.21.15-.29.5-.35,1.04-.65,1.57-.93.83-.45,1.68-.87,2.51-1.31.11-.06.15-.04.22.06.88,1.28,1.72,2.59,2.54,3.91.18.3.16.35-.18.48-1.1.44-2.2.88-3.25,1.44-.4.21-.8.42-1.21.62-.33.17-.39.16-.57-.16-.58-1.02-1.08-2.09-1.57-3.16-.1-.21-.24-.4-.23-.66Z"/>
        <path class="cls-2" d="M43.24,35.39c.12-.01.19.05.25.16.69,1.18,1.38,2.36,2.07,3.55.19.33.18.35-.16.47-1.62.54-3.22,1.15-4.8,1.8-.17.07-.29.05-.39-.12-.71-1.2-1.51-2.35-2.29-3.51-.1-.15-.07-.21.08-.27,1.39-.56,2.77-1.13,4.16-1.7.22-.09.45-.18.67-.28.13-.05.26-.11.41-.11Z"/>
        <path class="cls-3" d="M50.95,49.14c.26-.03.31.11.37.23.5.93,1.02,1.84,1.55,2.75.15.25.3.51.46.76.19.32.17.37-.17.49-1.11.38-2.23.71-3.32,1.16-.47.19-.93.41-1.39.63-.19.09-.3.06-.41-.12-.68-1.2-1.38-2.4-2.07-3.6-.08-.13-.09-.2.06-.3,1.5-.99,3.19-1.48,4.88-1.99.03-.01.07-.01.03,0Z"/>
        <path class="cls-4" d="M31.31,70.57c.2.2.34.44.47.68.6,1.1,1.19,2.19,1.85,3.25.14.22.14.39-.03.6-1.01,1.19-1.98,2.43-3.02,3.6-.38.43-.4.44-.7-.03-.71-1.14-1.39-2.29-1.97-3.5-.19-.4-.11-.59.15-.89.68-.77,1.4-1.51,2.09-2.27.27-.3.51-.61.73-.94.12-.18.24-.36.42-.49Z"/>
        <path class="cls-2" d="M50.99,59.6c-.2-.02-.36-.13-.43-.29-.52-1.11-1.26-2.09-1.88-3.14-.32-.55-.34-.53.23-.82,1.09-.54,2.23-.93,3.4-1.26.39-.11.77-.27,1.14-.42.25-.1.4-.05.54.19.62,1.12,1.25,2.23,1.88,3.34.03.05.05.1.08.15.12.16.06.22-.12.28-1.59.51-3.11,1.22-4.63,1.92-.07.03-.14.07-.21.06Z"/>
        <path class="cls-6" d="M44.08,70.34c0,.17-.09.27-.18.36-.77.82-1.47,1.71-2.18,2.58-.35.42-.67.85-1.02,1.28-.07.09-.14.25-.27.02-.76-1.31-1.49-2.62-2.2-3.95-.13-.24-.09-.39.09-.58,1.03-1.17,2.07-2.34,3.15-3.47.42-.44.41-.53.72.06.53,1.02,1.09,2.02,1.63,3.03.12.22.21.45.26.68Z"/>
        <path class="cls-6" d="M31.67,70.17c.02-.25.13-.45.29-.63.83-1.01,1.62-2.04,2.55-2.96.1-.1.19-.21.26-.33.14-.25.21-.16.33.02.78,1.23,1.6,2.44,2.34,3.7.13.22.11.39-.04.57-.96,1.18-1.92,2.36-2.88,3.54-.06.07-.13.13-.19.2-.27.3-.27.3-.46-.07-.63-1.23-1.4-2.39-2-3.64-.07-.14-.17-.26-.19-.41Z"/>
        <path class="cls-6" d="M13.03,59.49c.89-.63,1.81-1.21,2.66-1.89.32-.25.66-.48.93-.79.19-.22.3-.11.43.05.37.44.65.94.96,1.42.41.62.8,1.26,1.19,1.9.1.16.17.35.28.51.17.25.1.46-.09.64-.78.78-1.6,1.5-2.52,2.11-.29.19-.57.41-.89.55-.05-.03-.1-.07-.12-.12-.35-.73-1.01-1.26-1.28-2.04-.07-.22-.29-.35-.43-.54-.2-.27-.41-.53-.52-.85-.13-.37-.38-.65-.6-.96Z"/>
        <path class="cls-2" d="M.6,64.24c1.1-.15,2.2-.3,3.25-.63.48-.15.96-.29,1.43-.45.23-.08.37-.04.51.17.73,1.07,1.41,2.17,2.03,3.31.1.19.23.36.35.53.07.1.06.16-.06.2-1.24.43-2.46.91-3.77,1.07-.16.02-.32.02-.46.07-.36.12-.55-.04-.76-.32-.75-1.01-1.34-2.13-2.05-3.17-.17-.25-.39-.47-.46-.79Z"/>
        <path class="cls-3" d="M3.54,68.94c.37-.06.73-.13,1.1-.18,1.21-.17,2.36-.53,3.49-.97.24-.1.36-.04.49.18.78,1.34,1.58,2.68,2.39,4,.15.24.1.31-.15.36-1.23.28-2.47.49-3.72.61-.26.03-.52.06-.77.1-.41.07-.53.02-.76-.35-.46-.73-.9-1.46-1.25-2.25-.21-.47-.5-.9-.75-1.36-.02-.04-.03-.09-.06-.16Z"/>
        <path class="cls-6" d="M29.98,56.29c-.18-.32-.34-.6-.49-.89-.41-.79-.82-1.57-1.24-2.36-.07-.14-.18-.26-.25-.4-.16-.31-.13-.55.11-.81.54-.59.99-1.26,1.51-1.87.54-.64,1.11-1.24,1.69-1.84.12-.12.16-.06.22.05.51.84,1.02,1.67,1.52,2.51.22.36.43.73.66,1.09.13.21.12.36-.07.53-.43.42-.86.84-1.28,1.28-.82.86-1.78,1.6-2.4,2.7Z"/>
        <path class="cls-2" d="M16.21,81.25c.22-.01.27.15.35.27.51.83,1,1.66,1.51,2.49.27.43.53.87.74,1.33.08.18.05.23-.13.28-1.41.42-2.83.85-4.24,1.29-.22.07-.26-.09-.32-.2-.35-.62-.68-1.25-1.05-1.86-.48-.77-.78-1.64-1.34-2.36-.07-.09-.14-.21.08-.25,1.45-.3,2.91-.59,4.34-.99.03,0,.07,0,.08,0Z"/>
        <path class="cls-6" d="M22.56,65.38c-.51-.92-.99-1.76-1.46-2.61-.26-.47-.52-.94-.79-1.4-.1-.17-.08-.27.06-.41.6-.59,1.19-1.19,1.79-1.78.6-.58,1.11-1.24,1.67-1.85.16-.17.23-.17.33.05.35.8.87,1.5,1.32,2.24.22.36.45.72.63,1.11.06.14.06.26-.04.38-.47.58-.98,1.13-1.4,1.75-.62.89-1.52,1.53-2.11,2.52Z"/>
        <path class="cls-2" d="M38.91,48.53c-.14,0-.21-.09-.25-.18-.78-1.39-1.69-2.7-2.43-4.11-.11-.2-.06-.28.12-.38,1.18-.66,2.36-1.31,3.6-1.86.19-.08.25-.04.34.12.67,1.22,1.35,2.43,2.03,3.64.11.19.22.39.33.58.1.18.09.32-.12.39-.94.31-1.76.86-2.62,1.33-.27.15-.56.28-.84.42-.05.02-.1.04-.13.05Z"/>
        <path class="cls-6" d="M31.12,70.1c-.03.14-.06.25-.15.36-.9,1.16-1.88,2.25-2.91,3.31-.14.14-.23.31-.4.42-.13.09-.21.1-.32-.04-.42-.56-.77-1.15-1.1-1.76-.29-.54-.6-1.06-.85-1.62-.09-.19-.1-.34.06-.47.85-.73,1.47-1.65,2.21-2.47.3-.33.68-.6.92-1,.09-.14.2-.27.28-.41.12-.21.21-.14.3.01.15.25.3.51.44.77.48.9.96,1.8,1.43,2.7.04.06.06.14.08.2Z"/>
        <path class="cls-3" d="M16.83,91.43c-.1.03-.13-.04-.17-.11-.71-1.28-1.42-2.55-2.13-3.83-.15-.28.08-.29.23-.34,1.3-.39,2.6-.78,3.9-1.17.39-.12.39-.12.6.25.74,1.28,1.48,2.56,2.23,3.83.1.17.1.22-.11.27-1.5.35-2.98.71-4.48,1.06-.03,0-.05.01-.08.02Z"/>
        <path class="cls-6" d="M32.12,61.18c.03.17-.08.28-.17.39-.86,1.19-1.74,2.36-2.65,3.51-.18.23-.26.23-.4-.04-.16-.29-.29-.6-.45-.89-.53-1-1.07-1.99-1.67-2.94-.13-.21-.1-.36.06-.54.99-1.15,2.04-2.24,2.93-3.47.13-.17.2-.12.28.03.5.92,1.01,1.83,1.51,2.74.16.3.32.6.48.91.05.09.1.18.08.29Z"/>
        <path class="cls-2" d="M60.88,56.75c.19-.02.3.08.39.23.78,1.35,1.55,2.69,2.34,4.04.14.24.07.3-.16.37-1.04.31-2.12.49-3.17.77-.19.05-.37.14-.53.23-.18.1-.3.07-.41-.12-.73-1.34-1.45-2.69-2.31-3.95-.01-.01-.02-.03-.03-.05-.3-.49-.3-.48.23-.67,1-.36,2.04-.51,3.07-.71.2-.04.4-.08.6-.13Z"/>
        <path class="cls-4" d="M34.76,65.65c0,.18-.1.29-.21.41-.83.96-1.66,1.92-2.49,2.88-.15.18-.29.36-.41.56-.15.25-.24.25-.4,0-.49-.76-.92-1.56-1.32-2.38-.18-.36-.35-.71-.54-1.06-.1-.19-.1-.36.03-.54.93-1.26,1.86-2.52,2.78-3.78.14-.18.21-.14.31.03.73,1.21,1.4,2.47,2.17,3.65.05.07.07.15.07.24Z"/>
        <path class="cls-3" d="M47.93,55.85c.13,0,.18.07.23.16.68,1.13,1.43,2.22,2.16,3.33.04.06.06.13.1.19.15.23.1.38-.15.51-1.34.7-2.71,1.37-3.99,2.17-.15.09-.18.01-.24-.1-.37-.71-.68-1.44-.98-2.17-.23-.55-.53-1.06-.82-1.57-.21-.36-.19-.43.17-.63,1.08-.6,2.15-1.22,3.26-1.77.09-.05.18-.09.26-.12Z"/>
        <path class="cls-3" d="M8.92,77.98c1.4-.37,2.74-.82,4.09-1.24.55-.17.55-.17.85.32.71,1.17,1.43,2.33,2.14,3.5.19.31.16.38-.2.46-1.33.29-2.65.58-3.98.88-.29.07-.47,0-.64-.27-.69-1.13-1.4-2.24-2.1-3.36-.05-.09-.1-.18-.17-.3Z"/>
        <path class="cls-4" d="M16.26,64.38c.44-.31.88-.61,1.32-.92.76-.55,1.47-1.16,2.12-1.84.13-.13.19-.15.3.02.26.4.5.8.71,1.23.4.83.9,1.62,1.35,2.42.2.36.19.45-.09.73-.87.9-1.68,1.86-2.7,2.6-.08.05-.15.11-.22.16-.03,0-.06-.01-.07-.04-.39-.68-1.03-1.22-1.24-2.01-.02-.09-.09-.17-.15-.23-.41-.39-.67-.88-.88-1.39-.08-.19-.22-.32-.33-.48-.05-.08-.16-.14-.12-.26Z"/>
        <path class="cls-6" d="M34.96,44.3c-.77.54-1.43,1.22-2.16,1.81-.21.17-.41.35-.55.58-.14.24-.37.38-.58.54-.13.1-.21.06-.29-.07-.29-.51-.59-1.02-.88-1.54-.45-.82-.89-1.66-1.35-2.48-.12-.22-.13-.36.1-.53,1.06-.78,2.1-1.6,3.19-2.34.07-.04.15-.07.22-.1.18.08.24.25.3.42.14.41.34.77.61,1.11.21.27.37.58.46.91.06.22.17.4.31.58.27.33.49.7.6,1.11Z"/>
        <path class="cls-2" d="M8.84,77.65c-.14.03-.21-.13-.29-.26-.57-.92-1.14-1.84-1.72-2.76-.21-.34-.44-.68-.66-1.02-.08-.12-.11-.2.09-.23.95-.13,1.9-.28,2.84-.43.61-.1,1.21-.22,1.82-.36.25-.06.4,0,.52.23.6,1.06,1.15,2.15,1.82,3.18.09.13.11.24-.08.3-1.4.43-2.77.93-4.17,1.33-.04.01-.07,0-.18.02Z"/>
        <path class="cls-4" d="M27.52,52.61c.63,1.17,1.37,2.22,1.88,3.4.36.83.41.58-.19,1.29-.82.97-1.57,1.99-2.41,2.95-.38.43-.37.44-.65-.06-.54-.97-1.09-1.93-1.63-2.9-.23-.41-.22-.5.07-.87.85-1.07,1.69-2.13,2.54-3.2.15-.18.25-.39.39-.61Z"/>
        <path class="cls-4" d="M37.57,49.25c-.62.44-1.29.79-1.9,1.24-.49.36-.96.74-1.35,1.19-.13.15-.17.09-.26-.03-.46-.6-.81-1.28-1.21-1.93-.32-.52-.63-1.05-.93-1.58-.2-.35-.19-.41.1-.69.98-.95,1.96-1.89,3.05-2.71.26.12.39.37.51.6.31.62.56,1.26,1,1.81.02.02.03.05.04.07.19.59.52,1.1.87,1.6.08.12.19.26.1.43Z"/>
        <path class="cls-2" d="M54.06,53.04c-.16.03-.26-.08-.34-.2-.8-1.16-1.44-2.42-2.07-3.68-.09-.19.03-.21.16-.25.93-.27,1.86-.54,2.79-.83.25-.08.49-.18.72-.28.38-.16.46-.15.68.2.26.4.51.82.76,1.22.51.82,1.03,1.65,1.56,2.46.1.16.09.22-.09.28-.53.16-1.09.18-1.63.31-.74.18-1.45.43-2.17.67-.12.04-.24.1-.38.09Z"/>
        <path class="cls-2" d="M47.76,55.32c.02.17-.1.25-.23.31-.67.34-1.34.67-2,1.03-.44.24-.86.51-1.29.76-.34.2-.42.18-.6-.17-.58-1.13-1.24-2.21-1.87-3.31-.23-.4-.18-.51.22-.74,1.04-.6,2.13-1.11,3.22-1.63.19-.09.32-.09.43.12.66,1.14,1.29,2.29,2.03,3.38.05.07.09.16.08.26Z"/>
        <path class="cls-3" d="M45.27,51c.02.1-.06.1-.11.13-1.22.62-2.44,1.24-3.65,1.87-.14.07-.19.03-.25-.09-.71-1.26-1.41-2.51-2.12-3.77-.09-.17-.06-.26.11-.35,1.11-.62,2.27-1.17,3.4-1.74.15-.07.28-.11.38.08.67,1.28,1.41,2.51,2.18,3.73.03.05.05.1.08.15Z"/>
        <path class="cls-3" d="M58.41,52.37c.19-.01.3.07.39.21.73,1.18,1.42,2.38,2.06,3.61.07.14.04.17-.1.19-1.41.13-2.77.46-4.08.97-.16.06-.26.02-.35-.12-.72-1.18-1.4-2.39-2.07-3.61-.08-.15-.01-.16.1-.2,1.22-.44,2.47-.77,3.75-.99.11-.02.22-.04.3-.05Z"/>
        <path class="cls-2" d="M50.24,38.57c.13,0,.19.09.25.17.86,1.3,1.63,2.65,2.39,4,.09.17.15.27-.14.29-1.24.1-2.43.44-3.6.82-.19.06-.3.03-.4-.15-.7-1.21-1.41-2.4-2.12-3.61-.03-.06-.06-.12-.09-.17-.12-.17-.1-.26.12-.33,1.07-.32,2.13-.66,3.22-.92.13-.03.27-.07.38-.11Z"/>
        <path class="cls-6" d="M40.14,53.87c-.74.55-1.48,1.1-2.21,1.66-.24.18-.46.39-.69.6-.15.14-.27.16-.39-.05-.56-1.02-1.23-1.98-1.87-2.95-.19-.28-.35-.58-.55-.86-.09-.13-.05-.19.04-.28.98-.93,2.07-1.72,3.27-2.36.42.48.78.99.97,1.6.06.18.14.34.26.49.31.39.53.82.68,1.29.07.22.21.39.34.57.06.09.15.16.15.29Z"/>
        <path class="cls-3" d="M37.47,37.7c.15.35.4.63.6.93.49.73.98,1.46,1.42,2.22.09.15.2.29.3.43.19.25.18.32-.11.45-.82.37-1.65.74-2.44,1.18-.34.19-.68.38-1.01.58-.19.11-.31.1-.42-.11-.63-1.18-1.28-2.35-1.92-3.53-.18-.34-.18-.35.16-.51,1.14-.55,2.27-1.09,3.42-1.64Z"/>
        <path class="cls-5" d="M49.14,44.32c1.3-.42,2.6-.79,3.96-.86.17,0,.29.05.37.19.68,1.14,1.35,2.28,2.02,3.42.13.22-.04.27-.2.32-1.04.33-2.08.66-3.12.98-.74.23-.75.22-1.11-.45-.64-1.19-1.27-2.38-1.92-3.58Z"/>
        <path class="cls-6" d="M19.15,69.17c1.01-.77,1.94-1.63,2.83-2.52.14-.14.24-.3.35-.47.08-.13.14-.11.21,0,.21.33.35.69.51,1.05.4.94.95,1.79,1.44,2.69.06.11.11.21.17.32.1.17.06.32-.09.44-.99.78-1.95,1.61-3.03,2.28-.07-.06-.14-.14-.16-.22-.22-.67-.79-1.13-1.09-1.75-.3-.61-.68-1.15-1.09-1.69-.03-.04-.05-.08-.05-.12Z"/>
        <path class="cls-3" d="M43.75,35.14c1.19-.31,2.35-.65,3.51-1.01.21-.06.35,0,.47.18.75,1.17,1.51,2.33,2.25,3.5.21.33.21.33-.17.45-1.1.33-2.2.67-3.29,1-.23.07-.38.04-.51-.19-.7-1.22-1.5-2.38-2.13-3.63-.05-.1-.09-.2-.13-.31Z"/>
        <path class="cls-4" d="M42.41,58.54c-.46.39-.96.71-1.45,1.06-.42.31-.83.62-1.2.99-.24.24-.35.23-.55-.06-.43-.6-.71-1.28-1.04-1.92-.3-.58-.58-1.17-.88-1.75-.09-.18-.06-.32.09-.44.93-.78,1.9-1.51,2.91-2.17.15.05.17.19.2.31.07.23.18.44.33.63.24.31.44.64.56,1.01.11.33.26.62.47.9.24.31.39.67.51,1.04.05.12.12.26.04.4Z"/>
        <path class="cls-4" d="M21.71,73.23c1.05-.79,2.14-1.53,3.15-2.36.1-.08.16-.1.22.04.52,1.23,1.28,2.33,1.95,3.48.1.17.1.29-.04.44-.77.87-1.65,1.62-2.54,2.36-.29-.14-.44-.41-.63-.65-.09-.12-.16-.25-.22-.38-.19-.39-.37-.78-.7-1.08-.19-.17-.33-.41-.43-.64-.19-.44-.44-.85-.76-1.21Z"/>
        <path class="cls-6" d="M44.87,63.06c-1.02.61-1.83,1.46-2.66,2.29-.16.17-.22.14-.32-.06-.63-1.25-1.3-2.47-2.02-3.67-.26-.43-.26-.45.14-.76.89-.69,1.76-1.4,2.68-2.05.22.15.32.38.4.62.17.49.43.92.67,1.36.37.69.65,1.42,1.07,2.09.03.05.04.11.04.16Z"/>
        <path class="cls-4" d="M47.26,67.85c-.92.67-1.8,1.39-2.66,2.13-.19.16-.22-.02-.27-.11-.58-.97-1.13-1.97-1.63-2.99-.13-.26-.26-.53-.4-.79-.07-.13-.07-.25.04-.35.85-.81,1.61-1.71,2.69-2.24.37.58.79,1.14.95,1.83.03.14.14.24.22.35.18.26.35.53.46.82.15.39.3.78.55,1.11.05.07.09.14.05.23Z"/>
        <path class="cls-6" d="M24.55,77.52c.75-.63,1.51-1.27,2.26-1.91.12-.11.21-.25.33-.37.18-.18.3-.16.41.06.54,1.07,1.21,2.07,1.81,3.11.13.23.26.47.4.7.1.17.09.32-.06.47-.43.45-.96.78-1.43,1.17-.33.27-.61.6-1.01.77-.18-.07-.21-.25-.28-.39-.09-.2-.19-.4-.35-.56-.39-.36-.68-.8-.89-1.29-.07-.15-.14-.3-.27-.42-.41-.38-.69-.84-.93-1.34Z"/>
        <path class="cls-4" d="M27.44,81.85c.77-.58,1.51-1.21,2.25-1.84.28-.24.38-.22.55.1.73,1.34,1.46,2.67,2.19,4.01.22.4.21.43-.13.72-.55.46-1.09.95-1.68,1.36-.42-.56-.99-1.02-1.26-1.69-.08-.2-.2-.38-.35-.52-.4-.37-.7-.81-.9-1.32-.06-.14-.16-.25-.27-.35-.14-.14-.29-.29-.39-.46Z"/>
        <path class="cls-3" d="M27.44,81.85c.29.21.56.45.71.78.23.48.5.93.88,1.29.16.15.28.31.37.51.18.43.44.81.78,1.13.19.18.34.39.44.63-.72.61-1.57,1.04-2.38,1.51-.16.09-.16-.06-.2-.13-.68-1.18-1.36-2.37-2.03-3.56-.15-.27-.47-.56-.4-.81.07-.23.45-.37.7-.55.37-.27.75-.54,1.13-.81Z"/>
        <path class="cls-2" d="M24.55,77.52c.13.01.15.13.19.22.13.29.29.57.52.78.33.31.53.68.72,1.07.13.28.3.54.53.74.32.28.5.63.66,1,.03.07.07.13.11.19-.44.37-.93.67-1.4.99q-.49.34-.85-.16c-.77-1.09-1.4-2.26-2.16-3.35-.12-.16-.08-.25.07-.35.54-.37,1.07-.75,1.6-1.13Z"/>
        <path class="cls-3" d="M21.71,73.23c.26.17.48.4.6.7.2.51.49.97.88,1.36.11.11.19.22.24.36.23.58.59,1.08,1.02,1.54-.48.49-1.07.81-1.66,1.14-.19.11-.28,0-.37-.15-.49-.89-.98-1.77-1.47-2.66-.2-.36-.38-.71-.58-1.07-.11-.2-.06-.34.15-.45.42-.22.79-.5,1.18-.76Z"/>
        <path class="cls-3" d="M16.26,64.38c.31.35.54.74.72,1.17.1.25.25.48.44.67.26.26.42.57.56.91.12.32.32.61.54.86.22.24.42.49.53.8-.33.34-.72.6-1.15.79-.15.07-.23.06-.32-.1-.81-1.41-1.62-2.81-2.44-4.21-.07-.12-.1-.19.06-.27.36-.2.72-.41,1.08-.62Z"/>
        <path class="cls-2" d="M19.15,69.17c.33.4.72.77.93,1.25.22.53.52,1,.92,1.4.13.13.15.29.23.44.11.23.21.46.32.69-.43.27-.86.54-1.29.81-.12.07-.17.04-.23-.08-.67-1.14-1.35-2.27-2.04-3.4-.09-.15-.1-.24.07-.35.38-.24.73-.51,1.09-.76Z"/>
        <path class="cls-2" d="M13.03,59.49c.36.22.51.59.67.96.18.43.47.79.78,1.13.1.11.18.23.24.37.2.51.53.94.89,1.36.18.2.26.46.38.69-.31.19-.62.37-.91.58-.18.13-.29.07-.39-.08-.46-.69-.93-1.38-1.38-2.08-.43-.67-.82-1.37-1.23-2.04-.07-.11-.1-.18.03-.26.31-.19.62-.41.92-.61Z"/>
        <path class="cls-2" d="M44.87,63.06c-.29-.57-.65-1.1-.92-1.69-.38-.82-.79-1.64-1.22-2.44-.02-.03-.02-.07-.03-.1.26-.2.52-.37.81-.52.18-.09.26-.04.34.11.43.78.8,1.58,1.18,2.39.2.42.4.83.58,1.26.14.32.2.46-.19.68-.19.1-.36.22-.54.33Z"/>
        <path class="cls-3" d="M42.41,58.54c-.15-.63-.41-1.21-.83-1.71-.2-.24-.21-.57-.35-.84-.16-.32-.33-.62-.56-.89-.21-.25-.21-.59-.38-.86.19-.14.39-.28.58-.43.18-.14.31-.1.42.1.5.89,1.01,1.77,1.51,2.65.2.34.39.69.6,1.03.08.13.1.21-.06.31-.32.2-.6.46-.94.63Z"/>
        <path class="cls-3" d="M47.26,67.85c-.45-.56-.57-1.3-.96-1.89-.22-.33-.43-.66-.54-1.05-.11-.37-.33-.7-.57-1.01-.09-.12-.2-.23-.16-.4.25-.17.51-.33.76-.52.15-.12.21-.09.29.08.5,1.15,1.05,2.28,1.64,3.39.1.19.21.37.29.57.08.18.05.33-.15.44-.21.11-.4.26-.6.39Z"/>
        <path class="cls-2" d="M40.14,53.87c-.33-.33-.54-.73-.69-1.17-.11-.33-.29-.63-.52-.9-.09-.11-.18-.22-.22-.35-.17-.6-.47-1.11-.87-1.58-.05-.06-.07-.15-.1-.22.22-.15.44-.3.67-.44.16-.1.3-.11.41.1.65,1.25,1.38,2.46,1.99,3.74.11.23.09.37-.14.49-.19.1-.35.23-.53.35Z"/>
        <path class="cls-3" d="M37.57,49.25c-.08-.37-.31-.66-.54-.95-.11-.13-.19-.27-.24-.43-.15-.5-.4-.95-.75-1.34-.1-.11-.12-.24-.17-.38-.18-.52-.46-.99-.81-1.41,0,0,0-.02.01-.03.21-.18.45-.45.68-.44.24,0,.3.39.43.61.72,1.22,1.42,2.45,2.14,3.67.1.16.07.24-.09.32-.23.12-.45.25-.67.38Z"/>
        <path class="cls-2" d="M34.96,44.3c-.07-.03-.1-.1-.13-.17-.15-.35-.34-.68-.59-.97-.12-.14-.2-.29-.25-.48-.1-.37-.28-.7-.52-1.01-.2-.26-.4-.52-.49-.86-.06-.23-.19-.44-.32-.64.02-.03.04-.06.08-.08.62-.41.66-.4,1.02.26.56,1.04,1.16,2.06,1.7,3.12.14.27.09.43-.14.58-.13.08-.24.17-.37.25Z"/>
      </g>
    </g>
  </g>
  <g>
    <path d="M39.68,23.67c0-.5,0-.75,0-1.25.87-.33,1.44-.65,1.69-.97.26-.32.38-.88.39-1.68,0-4.52,0-6.78.01-11.31,0-.8-.13-1.29-.38-1.47-.26-.18-.82-.19-1.69-.01,0-.5,0-.75,0-1.25,3.32-.96,5-1.39,8.36-2.13,2.65-.58,4.59-.6,5.82-.15,1.23.45,1.85,1.41,1.85,2.84,0,1.09-.43,2.03-1.29,2.84-.86.81-2.2,1.52-4.01,2.18,2.17-.11,3.76.18,4.77.81,1.01.63,1.51,1.65,1.51,3.05,0,1.58-.68,2.86-2.02,3.88-1.35,1.02-3.35,1.77-6.01,2.35-3.62.78-5.42,1.24-9,2.27ZM46.15,12.87c0,2.26,0,3.4,0,5.66,0,.94.14,1.5.43,1.7.29.2.86.2,1.72,0,1.16-.25,2.06-.77,2.71-1.55.64-.79.97-1.78.97-2.99,0-1.36-.37-2.31-1.1-2.84-.73-.53-1.84-.64-3.33-.3-.56.13-.84.19-1.39.32ZM46.16,7.21c0,1.77,0,2.66,0,4.43.48-.11.72-.17,1.2-.28,1.35-.31,2.34-.76,2.98-1.39.63-.63.95-1.47.95-2.54,0-1.07-.27-1.84-.81-2.31-.54-.48-1.31-.61-2.29-.39-.77.17-1.3.42-1.59.76-.29.33-.43.91-.44,1.72Z"/>
    <path d="M65.15,15.58c0,.88.18,1.43.54,1.65.36.22,1.13.28,2.32.2,1.76-.12,3.14-.66,4.14-1.66,1-1,1.58-2.44,1.75-4.32.56-.01.84-.02,1.4-.03-.16,2.79-.24,4.18-.41,6.97-6.55.11-9.82.36-16.33,1.26,0-.5,0-.75,0-1.25.89-.2,1.47-.44,1.73-.72.26-.28.39-.82.39-1.62,0-4.52,0-6.78.01-11.31,0-.8-.13-1.31-.39-1.53-.26-.22-.84-.31-1.73-.26,0-.5,0-.75,0-1.25,3.47-.48,5.21-.67,8.7-.92,0,.5,0,.75,0,1.25-.88.14-1.45.34-1.71.61-.26.27-.39.81-.39,1.63,0,4.52,0,6.78-.01,11.31Z"/>
    <path d="M85.38,19.05c-1.16-.07-2.24-.32-3.23-.74-.99-.43-1.89-1.03-2.69-1.81-.91-.89-1.59-1.93-2.07-3.13-.47-1.2-.71-2.53-.71-3.98,0-1.44.24-2.76.71-3.95.47-1.19,1.17-2.23,2.1-3.1.8-.75,1.7-1.31,2.69-1.66.99-.35,2.06-.49,3.21-.42,1.15.07,2.21.35,3.2.82.99.47,1.88,1.14,2.67,1.99.92.99,1.62,2.11,2.09,3.36.47,1.25.7,2.6.7,4.04,0,1.44-.24,2.73-.71,3.87-.47,1.14-1.16,2.11-2.07,2.89-.79.68-1.69,1.17-2.68,1.48-.99.3-2.06.42-3.22.34ZM85.38,17.77c1.34.08,2.28-.42,2.83-1.54.55-1.12.82-3.22.82-6.3,0-3.06-.27-5.2-.82-6.41-.55-1.21-1.49-1.87-2.82-1.95-1.34-.08-2.29.46-2.83,1.6-.55,1.14-.82,3.25-.82,6.31,0,3.08.27,5.22.81,6.4.54,1.19,1.49,1.81,2.83,1.89Z"/>
    <path d="M110.7,10.49c-.46-1.64-1.13-2.98-2-3.99-.87-1.02-1.9-1.66-3.08-1.92-1.55-.34-2.7.09-3.46,1.24-.75,1.15-1.13,3.08-1.13,5.77,0,2.92.31,5.03.92,6.36.62,1.33,1.65,2.13,3.08,2.44,1.23.26,2.12.1,2.68-.49.56-.59.84-1.68.84-3.27,0-.82-.13-1.38-.38-1.69-.26-.31-.85-.61-1.78-.88,0-.5,0-.75,0-1.25,3.34.75,5,1.17,8.3,2.14,0,.5,0,.75,0,1.25-.86-.16-1.41-.14-1.65.04s-.36.66-.36,1.46c0,2.34,0,3.52,0,5.86-.57-.16-.86-.23-1.43-.38-.11-.4-.16-.6-.27-1.01h0c-.21-.73-.46-1.13-.75-1.2-.12-.03-.4.05-.85.23-.28.12-.5.21-.68.28-.55.22-1.17.34-1.86.37-.68.03-1.4-.04-2.15-.19-1.19-.25-2.26-.64-3.22-1.19-.96-.55-1.83-1.26-2.6-2.14-.9-1.04-1.59-2.2-2.07-3.48-.47-1.28-.71-2.65-.71-4.1,0-1.43.24-2.72.7-3.84.47-1.13,1.16-2.07,2.06-2.81.77-.63,1.64-1.06,2.61-1.28.97-.21,1.99-.21,3.06.01.55.11,1.11.29,1.68.54.57.25,1.21.59,1.92,1.03.06.03.09.05.14.08.69.42,1.16.67,1.41.73.22.06.41,0,.57-.16.16-.16.26-.43.32-.79.56.15.85.22,1.41.37,0,2.48,0,3.72,0,6.2-.51-.14-.77-.2-1.28-.34Z"/>
  </g>
  <g>
    <path d="M15.28,114.49c0,.69.12,1.17.37,1.44.24.28.79.56,1.63.84v1.07c-3.02-.77-4.52-1.18-7.52-2.05v-1.07c.75.15,1.23.14,1.45,0,.22-.15.33-.57.33-1.26,0-3.87,0-5.81,0-9.69,0-.69-.11-1.17-.33-1.44-.22-.27-.7-.55-1.45-.84v-1.07c5.49,1.6,8.26,2.31,13.81,3.56.12,2.09.18,3.14.3,5.23-.46-.1-.69-.16-1.15-.26-.24-1.46-.78-2.62-1.62-3.48-.83-.86-2-1.47-3.5-1.85-.95-.24-1.58-.3-1.87-.17-.29.13-.44.58-.44,1.34,0,1.61,0,2.41,0,4.01.34.09.51.13.85.22.88.23,1.54.15,1.98-.22.44-.38.71-1.08.81-2.12.41.1.62.15,1.04.25v7.23c-.42-.1-.62-.15-1.04-.25-.1-1.09-.36-1.93-.81-2.53-.44-.6-1.11-1.01-1.98-1.24-.34-.09-.51-.13-.85-.22,0,1.82,0,2.74,0,4.56Z"/>
    <path d="M32.2,121.51c-.99-.18-1.9-.53-2.73-1.03-.84-.5-1.59-1.15-2.27-1.95-.76-.91-1.34-1.92-1.74-3.04-.4-1.12-.6-2.3-.6-3.54s.2-2.32.6-3.26c.4-.94.99-1.7,1.76-2.3.67-.52,1.43-.86,2.27-1.02.84-.17,1.74-.16,2.71.02.97.18,1.88.51,2.72.99.84.48,1.6,1.11,2.27,1.87.78.89,1.39,1.88,1.79,2.96s.6,2.24.6,3.48-.2,2.33-.6,3.3c-.4.96-.99,1.77-1.77,2.4-.67.55-1.44.92-2.28,1.1-.84.19-1.75.19-2.73,0ZM32.2,120.41c1.14.21,1.94-.15,2.4-1.06.46-.92.69-2.7.69-5.34s-.23-4.47-.7-5.55c-.47-1.08-1.26-1.72-2.39-1.93-1.14-.21-1.93.13-2.39,1.04-.46.91-.69,2.67-.69,5.29s.23,4.51.69,5.6c.46,1.09,1.26,1.75,2.39,1.96Z"/>
    <path d="M46.76,120.55c0,.69.12,1.15.36,1.39.24.24.81.45,1.7.63v1.07c-3.08-.35-4.62-.55-7.7-1v-1.07c.76.04,1.26-.03,1.48-.21.22-.18.34-.62.34-1.3v-9.69c0-.69-.11-1.15-.34-1.4-.22-.24-.72-.45-1.48-.63v-1.07c3.1.46,4.65.66,7.76,1.01,2.32.26,4.05.73,5.16,1.45,1.12.72,1.68,1.71,1.68,3,0,1-.41,1.76-1.23,2.28-.82.51-2.05.79-3.7.8,1.08.35,1.92.79,2.54,1.31.61.52,1.01,1.15,1.2,1.87.15.56.26,1.29.34,2.17.03.34.06.59.08.74.06.38.14.64.24.78s.25.21.45.23c.32.03.56-.13.73-.45.17-.33.25-.82.25-1.47.4.04.6.05,1,.09,0,.06.01.12.02.19,0,.07,0,.17,0,.31,0,1.06-.27,1.85-.82,2.38-.55.53-1.33.75-2.34.66-.59-.05-1.11-.19-1.55-.41-.44-.22-.79-.51-1.06-.87-.39-.54-.64-1.53-.73-2.97,0-.12-.01-.21-.02-.28-.1-1.54-.41-2.58-.95-3.14-.26-.26-.59-.47-.99-.63s-.9-.27-1.49-.34c-.37-.04-.56-.07-.93-.11,0,1.88,0,2.82,0,4.7ZM46.76,110.83c0,1.59,0,2.38,0,3.96.47.06.7.09,1.17.14,1.37.16,2.36.05,2.95-.33.59-.37.89-1.06.89-2.06s-.25-1.73-.76-2.29c-.5-.56-1.24-.89-2.19-1-.85-.1-1.4-.05-1.67.15-.26.2-.39.67-.39,1.41Z"/>
    <path d="M61.12,110.39c-.08,0-.12,0-.2-.01v11.48c0,.71.12,1.18.36,1.4s.81.39,1.7.49v1.07c-2.17-.11-3.25-.18-5.42-.35v-1.07c.89.01,1.46-.08,1.7-.27.24-.19.36-.64.36-1.35v-9.69c0-.71-.12-1.18-.36-1.4-.24-.22-.8-.39-1.7-.51v-1.07c2.7.2,4.05.29,6.76.41,1.36,4.2,2.04,6.29,3.41,10.47,1.28-4.09,1.91-6.14,3.19-10.25,2.73.05,4.1.06,6.83.03v1.07c-.9.06-1.47.2-1.72.41-.24.21-.36.67-.36,1.37v9.69c0,.71.12,1.16.37,1.37.25.21.82.34,1.71.38v1.07c-3.14.03-4.71.02-7.85-.05v-1.07c.89-.03,1.46-.16,1.7-.36.24-.2.36-.66.36-1.37v-11.48c-.07,0-.1,0-.17,0-1.76,5.7-2.65,8.54-4.41,14.21-.62-.02-.94-.03-1.56-.06-1.89-5.8-2.83-8.71-4.72-14.56Z"/>
    <path d="M80.61,112.55c0-.73-.11-1.19-.33-1.38-.22-.19-.73-.31-1.52-.35v-1.07c2.95-.04,4.42-.09,7.37-.22v1.07c-.68.07-1.13.21-1.34.43-.21.21-.32.69-.32,1.41v6.79c0,1.61.28,2.77.85,3.48.57.71,1.48,1.03,2.72.96,1.24-.07,2.16-.5,2.75-1.29.59-.79.89-1.97.89-3.55v-6.79c0-.73-.11-1.19-.32-1.38-.21-.19-.66-.28-1.33-.28v-1.07c1.92-.12,2.88-.19,4.79-.35v1.07c-.78.12-1.29.29-1.51.5-.23.22-.34.69-.34,1.42v6.47c0,2.23-.49,3.9-1.48,4.99-.99,1.09-2.56,1.71-4.7,1.81-2.14.1-3.7-.36-4.69-1.36-.99-1-1.48-2.61-1.48-4.84v-6.47Z"/>
    <path d="M101.63,120.81c0,.75.15,1.22.46,1.4.31.18.97.21,1.98.08,1.5-.19,2.68-.76,3.52-1.7.85-.94,1.34-2.24,1.49-3.87.47-.07.71-.1,1.19-.18-.14,2.41-.2,3.61-.34,6.02-5.56.83-8.36,1.16-13.95,1.65v-1.07c.77-.14,1.26-.32,1.49-.56.23-.23.34-.69.34-1.38v-9.69c0-.69-.11-1.12-.34-1.32-.22-.19-.72-.29-1.49-.29v-1.07c2.99-.26,4.48-.42,7.46-.78v1.07c-.75.15-1.24.34-1.46.58-.22.24-.34.7-.34,1.4v9.69Z"/>
    <path d="M110.29,122.51v-1.07c.46-.17.83-.41,1.12-.75.29-.33.57-.88.85-1.65,1.87-5.18,2.8-7.78,4.67-13,.99-.18,1.48-.27,2.46-.46,1.81,4.64,2.72,6.94,4.53,11.54.23.59.49.98.77,1.17.28.19.68.27,1.2.24v1.07c-2.96.65-4.45.96-7.42,1.51v-1.07c.66-.17,1.12-.34,1.38-.53.26-.19.38-.43.38-.74,0-.12-.05-.33-.14-.63-.01-.04-.02-.06-.02-.07-.3-.91-.46-1.37-.76-2.28-2,.38-3.01.56-5.01.9-.25.81-.38,1.21-.63,2.02,0,.03-.01.05-.02.08-.17.53-.26.9-.26,1.11,0,.31.12.52.35.63.23.11.66.16,1.28.14v1.07c-1.89.32-2.83.48-4.73.76ZM114.68,115.57c1.67-.28,2.5-.43,4.17-.75-.78-2.26-1.18-3.4-1.96-5.67-.88,2.57-1.33,3.85-2.21,6.42Z"/>
    <path d="M135.19,106.64v-.13c0-.65-.07-1.01-.21-1.09-.14-.08-.5-.05-1.07.1-.54.14-.82.21-1.36.35,0-.39,0-.58.01-.97,1.17-.31,2.14-.69,2.91-1.13.78-.44,1.41-.96,1.9-1.56.39-.11.58-.16.97-.27v11.85c0,.73.14,1.16.42,1.31.28.15.82.11,1.61-.12.19-.05.28-.08.47-.14v.97c-3.32.96-4.98,1.41-8.32,2.25v-.97c.21-.05.32-.08.53-.13.83-.21,1.39-.47,1.69-.77.3-.3.45-.82.45-1.55v-7.99Z"/>
  </g>
</svg>